<?xml version="1.0" encoding="utf-8"?>
<!-- Generator: Adobe Illustrator 21.1.0, SVG Export Plug-In . SVG Version: 6.00 Build 0)  -->
<svg version="1.1" id="Layer_1" xmlns="http://www.w3.org/2000/svg" xmlns:xlink="http://www.w3.org/1999/xlink" x="0px" y="0px"
	 viewBox="0 0 243.9 71.9" style="enable-background:new 0 0 243.9 71.9;" xml:space="preserve">
<style type="text/css">
	.st0{fill:#0071CE;}
	.st1{fill:#385988;}
</style>
<g>
	<g>
		<path class="st0" d="M19.7,17c6.2,0,11,1.7,14.5,5.2c3.5,3.5,5.2,8.3,5.2,14.5c0,6.2-1.7,11-5.2,14.5c-3.5,3.5-8.3,5.2-14.5,5.2
			c-6.2,0-11.1-1.7-14.5-5.2C1.7,47.7,0,42.9,0,36.7V0h5v22.4c1.7-1.7,3.8-3.1,6.2-4C13.7,17.5,16.6,17,19.7,17z M19.7,51.4
			c4.8,0,8.4-1.3,10.9-3.8s3.8-6.2,3.8-10.9c0-4.8-1.3-8.4-3.8-10.9c-2.5-2.5-6.2-3.7-10.9-3.7c-4.8,0-8.4,1.2-10.9,3.7
			C6.3,28.3,5,31.9,5,36.7c0,4.8,1.2,8.4,3.7,10.9C11.3,50.1,14.9,51.4,19.7,51.4z"/>
		<path class="st0" d="M65.5,56.4c-5.1,0-9-1.7-11.9-5.2c-2.8-3.5-4.2-8.3-4.2-14.5V17.7h5v18.9c0,1.4,0.1,2.9,0.4,4.6
			c0.2,1.7,0.8,3.3,1.5,4.8c0.8,1.5,1.9,2.8,3.4,3.8c1.5,1,3.4,1.5,5.8,1.5c2.4,0,4.3-0.5,5.8-1.5c1.5-1,2.6-2.3,3.4-3.8
			c0.8-1.5,1.3-3.1,1.5-4.8c0.2-1.7,0.4-3.2,0.4-4.6V17.7h5v18.9c0,6.2-1.4,11.1-4.2,14.5C74.6,54.6,70.6,56.4,65.5,56.4z"/>
		<path class="st0" d="M98.1,22.2c3.2-3.5,7.7-5.2,13.5-5.2v5c-4.3,0-7.6,1.3-9.9,3.8c-2.3,2.5-3.4,6.2-3.4,10.9V56h-5V36.7
			C93.2,30.5,94.8,25.7,98.1,22.2z"/>
		<path class="st1" d="M134.2,34.3c1.6,0.3,3.2,0.7,4.8,1.1c1.6,0.4,3.1,1,4.4,1.8c1.3,0.8,2.4,1.8,3.2,3.1c0.8,1.3,1.2,3,1.2,5
			c0,3.5-1.3,6.2-3.8,8.1c-2.5,2-6,3-10.4,3c-4.4,0-7.9-1-10.4-3c-2.5-2-3.8-4.7-3.8-8.1h5c0,1.2,0.3,2.3,0.8,3.1s1.3,1.4,2.2,1.9
			c0.9,0.5,1.9,0.8,3,0.9c1.1,0.2,2.2,0.3,3.2,0.3c1.1,0,2.1-0.1,3.2-0.3c1.1-0.2,2.1-0.5,3-0.9c0.9-0.5,1.6-1.1,2.2-1.9
			s0.9-1.8,0.9-3.1c0-0.9-0.1-1.6-0.4-2.2c-0.3-0.6-0.8-1.1-1.5-1.5c-0.7-0.5-1.7-0.9-3-1.2c-1.3-0.4-2.9-0.8-4.9-1.2
			c-1.6-0.3-3.2-0.7-4.8-1.2c-1.6-0.4-3.1-1-4.4-1.8c-1.3-0.8-2.4-1.8-3.2-3.1c-0.8-1.3-1.2-3-1.2-5c0-3.5,1.3-6.2,3.8-8.1
			c2.5-2,6-3,10.4-3c4.4,0,7.8,1,10.4,3c2.5,2,3.8,4.7,3.8,8.1h-5c0-1.2-0.3-2.3-0.9-3.1s-1.3-1.4-2.2-1.8c-0.9-0.4-1.9-0.7-3-0.9
			c-1.1-0.2-2.1-0.3-3.2-0.3c-1.1,0-2.1,0.1-3.2,0.3c-1.1,0.2-2.1,0.5-3,0.9c-0.9,0.4-1.6,1-2.2,1.8s-0.8,1.8-0.8,3.1
			c0,0.8,0.1,1.5,0.3,2.1c0.2,0.6,0.7,1.1,1.4,1.5c0.7,0.5,1.7,0.9,3,1.3C130.4,33.4,132.1,33.8,134.2,34.3z"/>
		<path class="st1" d="M193.8,17.7l-23.9,54.1h-5.5l7.8-17.6L156,17.7h5.5L174.9,48l13.5-30.3H193.8z"/>
		<path class="st1" d="M216.6,34.3c1.6,0.3,3.2,0.7,4.8,1.1c1.6,0.4,3.1,1,4.4,1.8c1.3,0.8,2.4,1.8,3.2,3.1c0.8,1.3,1.2,3,1.2,5
			c0,3.5-1.3,6.2-3.8,8.1c-2.5,2-6,3-10.4,3c-4.4,0-7.9-1-10.4-3c-2.5-2-3.8-4.7-3.8-8.1h5c0,1.2,0.3,2.3,0.8,3.1s1.3,1.4,2.2,1.9
			c0.9,0.5,1.9,0.8,3,0.9c1.1,0.2,2.2,0.3,3.2,0.3c1.1,0,2.1-0.1,3.2-0.3c1.1-0.2,2.1-0.5,3-0.9c0.9-0.5,1.6-1.1,2.2-1.9
			s0.9-1.8,0.9-3.1c0-0.9-0.1-1.6-0.4-2.2c-0.3-0.6-0.8-1.1-1.5-1.5c-0.7-0.5-1.7-0.9-3-1.2c-1.3-0.4-2.9-0.8-4.9-1.2
			c-1.6-0.3-3.2-0.7-4.8-1.2c-1.6-0.4-3.1-1-4.4-1.8c-1.3-0.8-2.4-1.8-3.2-3.1c-0.8-1.3-1.2-3-1.2-5c0-3.5,1.3-6.2,3.8-8.1
			c2.5-2,6-3,10.4-3c4.4,0,7.8,1,10.4,3c2.5,2,3.8,4.7,3.8,8.1h-5c0-1.2-0.3-2.3-0.9-3.1s-1.3-1.4-2.2-1.8c-0.9-0.4-1.9-0.7-3-0.9
			c-1.1-0.2-2.1-0.3-3.2-0.3c-1.1,0-2.1,0.1-3.2,0.3c-1.1,0.2-2.1,0.5-3,0.9c-0.9,0.4-1.6,1-2.2,1.8s-0.8,1.8-0.8,3.1
			c0,0.8,0.1,1.5,0.3,2.1c0.2,0.6,0.7,1.1,1.4,1.5c0.7,0.5,1.7,0.9,3,1.3C212.8,33.4,214.5,33.8,216.6,34.3z"/>
	</g>
</g>
<g>
	<path class="st1" d="M237.3,12.7v0.7h-1.9v5.1h-0.8v-5.1h-1.9v-0.7H237.3z"/>
	<path class="st1" d="M238.4,12.7h1.1l1.7,4.9l1.6-4.9h1.1v5.7h-0.7V15c0-0.1,0-0.3,0-0.6c0-0.3,0-0.6,0-0.9l-1.6,4.8h-0.8l-1.7-4.8
		v0.2c0,0.1,0,0.4,0,0.6s0,0.5,0,0.6v3.4h-0.7V12.7z"/>
</g>
</svg>
