<svg id="Layer_1" data-name="Layer 1" xmlns="http://www.w3.org/2000/svg" viewBox="0 0 1198.83 894.09"><defs><style>.cls-1{fill:#f6e00e;}.cls-2{fill:#070405;}.cls-3{fill:#fefefd;}</style></defs><title>tamezLogo</title><path class="cls-1" d="M1137.82,841.82c-7.55-1.36-15.2-.86-22.8-.94-3.34,0-4-1.24-4.24-4.33-.53-8.37.35-16.82-1.44-25.12,9-3.72,18.23-3.55,27.54-1.3,1.68.41,2.43,1.06,2.42,3,0,8.28.11,16.55.23,24.83A4.14,4.14,0,0,1,1137.82,841.82Z"/><path class="cls-2" d="M505.59,750.48c3.21-2.75,6.41-5.51,9.65-8.22.76-.64,1.62-2.06,2.59-.16-.1.13-.29.26-.28.4q.25,47.44.49,94.88c0,2.23.88,2.87,2.92,2.9,5,.09,10,0,15,.59,4.6.54,5.52-1.17,5.48-5.46-.2-21.81,0-43.62-.17-65.43,0-3.66.8-5.07,4.68-4.81a102.86,102.86,0,0,0,15.47,0c4.24-.36,4.84,1.35,4.82,5-.15,22.14,0,44.29-.14,66.43,0,3.23.77,4.41,4.12,4.22a104.89,104.89,0,0,1,14,.05c4.42.34,6-.88,5.92-5.66-.28-20.31-.11-40.62-.12-60.94,0-10,0-10,10-8.87a5.81,5.81,0,0,1,1.38.53q0,31.09,0,62.18c-.07,3.15-.06,6.31-.24,9.46-.13,2.3.61,3.29,3.08,3.23q8.73-.2,17.47,0c2.64.06,3.44-1,3.43-3.52q-.19-36.93-.24-73.86c5.28-8.49,11.59-15.9,21-20-2.12,3.74-4.34,7.5-4.62,11.89a450.31,450.31,0,0,0,0,56.62l.42,14c1.41,8.74,6.32,13.8,15.18,14.36,12.29.78,24.59.49,36.92.05,10.72-.38,18-7.58,16.82-20.5-.34-3.74-1.59-4.59-5.12-4.56-10.82.1-21.64-.31-32.46-.26-3.32,0-4.5-1.4-4.55-4.38a39.11,39.11,0,0,0-.08-4.49c-.47-3.53,1.07-4.47,4.46-4.55,9.14-.22,18.3-.25,27.42-1.31,11-1.28,15.35-5.79,16.19-17,1.06-5.71.31-11.47.49-17.2,10.75-1.65,21.54-.33,32.31-.39,1.51,0,3.31-.59,4.85,1.32-8.91,11.34-17.38,23.07-26.86,33.93-8.77,10.05-13.48,20.93-12.64,34.41.26,4.2.71,5.68,5.32,5.65,21.3-.12,42.61.14,63.92.37,1.58,0,3.8-1.21,4.7,1.41-4.23,5.14-8.53,10.23-12.64,15.46a6.68,6.68,0,0,1-5.82,3q-35.48-.09-71,.14c-3.1,0-4.13-.86-3.89-3.93s.06-6.46.06-9.69c-2.56.06-2.31,1.66-2.87,2.5-3.56,5.39-8.07,9.17-14.77,9.93a172,172,0,0,1-42.35-.42c-6.44-.87-10.82-4.74-13.2-10.83-.59-1.5-.57-3.3-2.22-4.6-4.48,3.84-7.19,9-10.44,13.73a6.73,6.73,0,0,1-6.56,3.29c-5.66-.21-11.34-.27-17,0-3.51.17-4.82-.93-4.43-4.44a75.76,75.76,0,0,0,0-7.61c-4.35,2.76-5.74,6.44-7.77,9.51a4.83,4.83,0,0,1-4.83,2.56c-6.49-.29-13-.46-19.48-.38-2.75,0-3.75-1-4.28-3.56-.82-3.89-2-7.72-3.05-11.56-.35-1.24-.33-3-1.63-3.41-1.51-.47-2.12,1.3-2.94,2.26-3.9,4.55-7.79,9.11-11.59,13.73a6.62,6.62,0,0,1-5.92,2.85c-6-.33-12-.32-18-.48-2.9-.08-4.53-1.06-4.3-4.51s-.3-7-.54-11.29c-3.54,4.38-5,9.08-7.25,13.3-1,1.93-2.09,3-4.53,3-18.1-.29-36.21-.12-54.29-.73-13.38-.45-17.91-4.5-22-18.49-5,5.36-9.64,10.06-13.92,15.09a11,11,0,0,1-10,4.16,121.76,121.76,0,0,0-15.48,0c-3.6.22-4.39-1.07-4.38-4.48.13-29,0-58,.22-87,0-4.87-1.19-6.21-6-5.92-7.47.45-15,0-22.48.17-2.77.06-3.8-.67-3.71-3.61.21-7,.11-14,.06-21,0-1.55,0-2.92,1.33-4.06C341,730,346.73,724,353.38,719c1.33,6.41.61,12.93,1.08,19.4.2,2.81,1.11,3.64,3.88,3.65,8,0,16,.49,24,.53,3,0,4,1,3.94,4.05-.16,10.16-.05,20.32-.05,30.48,0,19.66.09,39.31-.08,59,0,3.71,1,5.08,4.75,4.78a58.33,58.33,0,0,1,12,0c5.3.69,6.31-1.46,6.28-6.32-.21-29,0-58-.2-87,0-3.89,1-5.27,5-5.08,7.32.35,14.65.16,22,.31,5.18.11,5.38.35,2.62,5a20.77,20.77,0,0,0-3.16,13.8c.39,3.17,1.57,3.7,4.35,3.66,10.83-.13,21.66,0,32.48,0,10.17,0,10,0,10.17,10.11.05,3.49-.93,4.51-4.43,4.47-10.49-.11-21-.05-31.47.34-9.15.34-14.78,5.83-15.76,14.83-1.06,9.64-.63,19.31-.23,29s5.79,15.25,15.53,16.14c18.89,1.73,37.83-.84,56.72.73,2.53.21,3.52-.68,3.49-3.38Q505.83,793.95,505.59,750.48Z"/><path class="cls-2" d="M1099.6,819.94l9.73-8.51c1.8,8.3.92,16.75,1.44,25.12.19,3.09.9,4.3,4.24,4.33,7.6.08,15.24-.42,22.8.94-4.67,5.63-9.38,11.23-14,16.93a5.89,5.89,0,0,1-5.12,2.38c-8.33-.07-16.66-.09-25,.11-2.88.07-3.75-.87-3.62-3.69.21-4.65.06-9.32.06-14.22-2.22.32-2.38,2.24-3.07,3.51-3.93,7.23-9.94,11.58-18,12.7-17.75,2.45-35.57,2-53.33.42-9-.8-14-6.8-15.9-16.05-4,4.39-5.39,9.41-7.57,14-.87,1.81-1.44,3.44-4.16,3.4q-30.22-.46-60.45-.6c-11-.06-19.64-3.6-22.73-16.22-2.42,4.08-3,7.79-3.61,11.37-.55,3-2,4.1-5,4.15-21.48.4-43,1.15-64.43.19-10.09-.45-16.31-6.4-16.75-16.21-1.56-35-.63-69.94-1-104.91a5.14,5.14,0,0,1,1.88-4.35c6.24-4.89,11.51-10.93,18.16-15.32.37,35.46.31,70.92,1.82,106.36.36,8.51,5.37,13.72,13.92,14.25,21.46,1.33,42.94.56,64.41.82,2.63,0,3.56-.92,3.43-3.48-.24-4.49-.34-9-.43-13.47-.17-8.41-.15-8.4-8.29-9-1.32-.1-2.62-.41-3.93-.63,0-24,.06-48-.17-71.93,0-4,1.06-6.83,4.11-9.4,4.45-3.75,8.66-7.8,12.79-11.9,2.43-2.41,2.36-.66,2.45,1.2s-.17,4-.15,6q.54,47.64,1.1,95.28c.1,9.08,5.83,16.05,14.93,16.59,20.92,1.22,41.88.86,62.83.3,3.66-.1,5.49-1.41,5.26-5.37-.22-3.81.13-7.64.09-11.47-.08-8.1-.12-8.1-8.18-9,.08-19.15,0-38.31.33-57.46.14-8.12.31-16.49,5.91-23.26,4.81-5.81,10.28-10.77,18.14-12.06-.92,3.48-4.42,5.52-4.38,9.77.29,30.5.21,61,.39,91.5.06,10.5,5.61,16.88,16,17.34,16.14.72,32.32,1.15,48.45-.41,5-.48,8.5-3.08,11-7.54C1098.2,828.41,1098.16,824,1099.6,819.94Z"/><path class="cls-1" d="M716.46,783.21c-.84,11.25-5.21,15.76-16.19,17-9.11,1.06-18.27,1.09-27.42,1.31-3.4.08-4.94,1-4.46,4.55a39.11,39.11,0,0,1,.08,4.49c.05,3,1.24,4.4,4.55,4.38,10.82,0,21.64.36,32.46.26,3.53,0,4.78.82,5.12,4.56,1.17,12.92-6.1,20.12-16.82,20.5-12.32.44-24.63.72-36.92-.05-8.85-.56-13.77-5.62-15.18-14.35-.24-4.65.89-9.34-.42-14a450.32,450.32,0,0,1,0-56.62c.28-4.39,2.49-8.15,4.62-11.89,5.49-4.63,12.52-3.93,18.78-4.49,10.89-1,21.95-.4,32.92-.11a19.06,19.06,0,0,1,11.43,4c2,1.57,3.82,2,5-.17,2.16-4,5.39-3.93,9.25-3.9,20.29.14,40.59.2,60.88-.19,5-.1,6.62,2.36,7,6.16,1,9.57-.82,18.59-6.44,26.66-9.6,13.79-20.61,26.48-31,39.65-.9,1.14-3.88,1-2.62,3.41,1,1.9,3.27,1.3,5,1.32,9.32.09,18.64.21,28,0,4.52-.09,6.59,1.73,6.18,6.17-.64,6.92,1.09,14-1.71,20.78-.9-2.62-3.11-1.4-4.69-1.42-21.31-.23-42.61-.49-63.92-.37-4.61,0-5.06-1.45-5.32-5.65-.84-13.49,3.87-24.36,12.64-34.41,9.47-10.86,17.95-22.59,26.86-33.93-1.54-1.9-3.34-1.32-4.85-1.32-10.77.05-21.56-1.26-32.31.39C715.75,771.71,716.62,777.47,716.46,783.21Zm-35.56-18c-2.65,0-5.3,0-8,0-2.38,0-4.85-.32-4.46,3.4.3,2.9-.44,6.33,4.14,6.43,5,.11,10,0,14.9.45,4.66.45,5.9-1.21,5.77-5.78-.11-3.88-1.39-4.91-4.94-4.55A71.39,71.39,0,0,1,680.9,765.23Z"/><path class="cls-1" d="M505.59,750.48q.3,43.47.66,86.94c0,2.7-1,3.59-3.49,3.38-18.89-1.57-37.84,1-56.72-.73-9.74-.89-15.12-6.4-15.53-16.14s-.82-19.32.23-29c1-9,6.62-14.48,15.76-14.83,10.48-.39,21-.45,31.47-.34,3.5,0,4.49-1,4.43-4.47-.16-10.12,0-10.11-10.17-10.11-10.83,0-21.66-.09-32.48,0-2.79,0-4-.5-4.35-3.66a20.77,20.77,0,0,1,3.16-13.8c2.76-4.61,2.56-4.86-2.62-5-7.33-.15-14.67,0-22-.31-4-.19-5.06,1.19-5,5.08.15,29,0,58,.2,87,0,4.86-1,7-6.28,6.32a58.33,58.33,0,0,0-12,0c-3.8.3-4.78-1.07-4.75-4.78.18-19.66.08-39.31.08-59,0-10.16-.11-20.32.05-30.48,0-3-.9-4-3.94-4.05-8,0-16-.49-24-.53-2.76,0-3.68-.85-3.88-3.65-.46-6.46.25-13-1.08-19.4,1-1.89,2.47-2.53,4.71-2.53q38.92.15,77.84,0c4.31,0,5.48,2.51,5.53,6,.08,5.14-.1,10.29-.16,15.44,0,2.95-.55,5,4.22,3.23a41,41,0,0,1,15-2.59c8.14.23,16.35-.57,24.43.14,5.55.48,11.72.78,15.78,5.8,1,1.28,3.7,1.88,1.87,4.73C502.06,750.09,503.82,751.73,505.59,750.48Zm-37.47,64.34v0c3.15,0,6.29.08,9.44,0,2.11-.07,4.89.92,4.79-3-.08-3.29-.32-5.93-4.65-5.9-7,0-13.91,0-20.86-.33-3.52-.15-3.65,1.77-3.51,4.33.13,2.36-.82,5.21,3.37,5C460.5,814.65,464.31,814.82,468.12,814.82Z"/><path class="cls-1" d="M624.88,763.46q.1,36.93.24,73.86c0,2.54-.78,3.59-3.43,3.52q-8.73-.21-17.47,0c-2.47.06-3.21-.93-3.08-3.23.18-3.15.17-6.31.24-9.46,1-16.59.31-33.19.39-49.79,0-4.12.75-8.3-.43-12.4a5.81,5.81,0,0,0-1.38-.53c-10-1.14-10-1.13-10,8.87,0,20.31-.16,40.63.12,60.94.07,4.77-1.49,6-5.92,5.66a104.89,104.89,0,0,0-14-.05c-3.35.19-4.14-1-4.12-4.22.14-22.14,0-44.29.14-66.43,0-3.69-.57-5.4-4.82-5a102.86,102.86,0,0,1-15.47,0c-3.88-.25-4.71,1.16-4.68,4.81.16,21.81,0,43.62.17,65.43,0,4.29-.87,6-5.48,5.46-4.94-.58-10-.5-15-.59-2,0-2.91-.68-2.92-2.9q-.18-47.44-.49-94.88c0-.13.19-.27.28-.4,1.15-2.83,3.39-2.3,5.43-1.53s4.11,2,6.17,3c3.84,1.87,7.26,3.07,11.29-.56,2.22-2,6.11-2.82,9.3-2.93,8.56-.3,17.27-1.78,25.58,1.89,3.27,1.45,6.43.25,9.61-.78a43.33,43.33,0,0,1,26-.32c9.28,2.88,13.45,6.28,13,18.21C624.19,760.58,623.89,762.13,624.88,763.46Z"/><path class="cls-2" d="M147,740.73c2.28-10.33,12.56-19.72,23.6-21.56-4.06,4.54-7.13,9.52-7.11,15.89a.76.76,0,0,1,0,.21c0,.16-.07.32-.07.49-.05,7.81-1,15.65.55,23.43,0,.48-.15,1.14.1,1.43,4,4.59,3.29,9.09-.17,13.58-1,.91-.72,2.14-.71,3.26q.1,17.65.23,35.31c-.1,3.8-.55,7.64-.24,11.41.84,10.24,5.85,15,16.13,16,11.44,1.07,22.89.49,34.35.47,8.82,0,15.32-3.59,18.83-11.93,3.31-3.62,5.49-8.35,10.36-10.43A47.26,47.26,0,0,1,244,823c1.32,10.59,7.71,16.79,18.34,17.34,6.46.33,12.95.35,19.43.38,9,0,18,.17,25.37-6.2-2.63,10.39-8.82,18.05-17.92,23.54-3.6,2.17-7.63,2.34-11.59,2.39-10.32.13-20.65.16-31,0-13.31-.22-19.71-5.23-23.4-18-2,.32-2.19,2.27-3.06,3.48-6.22,8.7-14,14.41-25.26,14.68s-22.31,1.16-33.42-.32c-13-1.73-16.42-5.13-18.9-17.95-.15-.79-.34-1.57-.52-2.39-1.9.46-2.13,2.13-2.94,3.31-6.54,9.5-15.14,15.82-26.89,17a157.24,157.24,0,0,1-35.88-.14c-10.09-1.28-19.09-15-16.63-24.85a6.88,6.88,0,0,1,1.55-3c5.12-5.26,11-9.63,16.91-14,.23-.17.86.21,1.31.32.22,1.46.46,2.93.68,4.4,1.55,10.35,8,16.79,18.14,17.32,10,.53,19.93.91,29.9,0,13.73-1.31,17.64-5.39,17.84-19.28C146.42,794.23,146.66,767.48,147,740.73Z"/><path class="cls-1" d="M163.46,735.05c0-6.36,3.05-11.34,7.11-15.89,10.23-3.5,20.56-3,31-1.15s19.06,15.88,13.41,24.9c-8.14-.12-16.28-.15-24.41-.39-2.77-.08-3.9.78-3.8,3.64.16,4.81.16,9.64,0,14.46-.09,2.57.74,3.53,3.38,3.44,5-.17,10-.23,15,0,3.07.15,4.43-.75,4.77-4,.64-6.13,3.53-11,9.19-13.9,2.77-.39,5.64-.47,8.29-1.26,3.73-1.11,4.49,1,4.67,3.77.25,3.81.2,7.64.29,11.46.06,2.59.89,3.67,4,3.47,7.36-.46,7.88.25,7.88,7.42,0,4.82-.11,9.64-.05,14.46,0,2.61-.75,4.26-3.68,3.91-5.94-.72-7.91,3.59-8,7.83-.26,10.43-1.06,20.9.09,31.35-3.51,8.35-10,11.92-18.84,11.93-11.45,0-22.91.6-34.35-.47-10.28-1-15.29-5.71-16.13-16-.31-3.77.14-7.6.24-11.41,1-12.85.1-25.71.48-38.57,3.45-4.48,4.16-9,.17-13.58-.25-.29-.08-.94-.1-1.42Q163.72,747.11,163.46,735.05Zm23.35,67c0,14.11,0,14.12,13.26,13.46,1.82-.09,3.63-.43,5.45-.44,2.91,0,4.12-1.23,4-4.25-.22-4,0-8-.1-11.93-.36-10.16.86-9.27-9.67-9.05-4.1.08-9.32-1.61-12,1S187.31,798.69,186.81,802Z"/><path class="cls-1" d="M1099.6,819.94c-1.44,4.05-1.41,8.47-3.61,12.39-2.51,4.46-6.05,7.06-11,7.54-16.13,1.56-32.31,1.13-48.45.41-10.38-.46-15.93-6.84-16-17.34-.18-30.5-.1-61-.39-91.5,0-4.25,3.47-6.29,4.38-9.77,5.34-4.31,11.76-4.33,18.13-4.52,11.28-.34,22.55.38,33.84-.47,10.75-.81,21.37,9.39,21.69,20,.07,2.49-.39,4.59-2.45,6.14-15.91-.07-31.82-.08-47.72-.27-3.07,0-4.53.6-4.34,4.06.31,5.78.22,11.58.29,17.38-1.1,15.58-.39,31.18-.47,46.77,0,3.47,2.1,3.84,4.92,3.84,13.45,0,26.9.11,40.34.23C1093.14,814.85,1098.18,813.62,1099.6,819.94Z"/><path class="cls-1" d="M905.1,814.23c1.31.21,2.61.52,3.93.63,8.14.63,8.12.62,8.29,9,.09,4.49.2,9,.43,13.47.14,2.56-.79,3.51-3.43,3.48-21.47-.26-43,.51-64.41-.82-8.55-.53-13.55-5.74-13.92-14.25-1.51-35.44-1.45-70.9-1.82-106.36.61-1.79,1.31-3.11,3.74-3,5.32.19,10.66.11,16-.1,2.93-.12,3.87,1.29,3.89,3.86,0,4.16.08,8.32.08,12.48q0,37.22,0,74.44c0,6.89,1,7.84,7.8,7.73Q885.38,814.49,905.1,814.23Z"/><path class="cls-1" d="M1000.16,814.46c8.06.94,8.1.94,8.18,9,0,3.82-.31,7.66-.09,11.47.23,4-1.59,5.28-5.26,5.37-20.95.56-41.9.92-62.83-.3-9.1-.53-14.83-7.51-14.93-16.59q-.53-47.64-1.1-95.28c0-2,.1-4,.15-6,6.15-8.08,14.77-3.46,22.3-4.14,2.29-.21,1.63,2.51,1.64,4,.09,12.5.1,25,.11,37.49,0,17.16.09,34.32-.1,51.48,0,3.62.79,5,4.63,4.93,14.49-.21,29-.1,43.48-.19C997.67,815.76,999.47,816.55,1000.16,814.46Z"/><path class="cls-1" d="M307.09,834.55c-7.4,6.38-16.41,6.25-25.37,6.2-6.48,0-13-.05-19.43-.38-10.63-.55-17-6.75-18.34-17.34a47.26,47.26,0,0,0-1.11-4.82c1.79-3.54,5.38-3.82,8.35-3.4,5.29.76,10.34-.54,15.5-.68,3.32,1.71,6.86.69,10.28.66,9.91-.09,10-.17,9.92-10.26q-.21-42.61-.51-85.23c.43-2.55,2.1-2.94,4.39-2.85a137.61,137.61,0,0,0,14.94.08c3.39-.24,4.31.88,4.29,4-.09,13.79,0,27.58,0,41.37,0,19.94-.16,39.87-.14,59.81A26.38,26.38,0,0,1,307.09,834.55Z"/><path class="cls-1" d="M147,740.73c-.3,26.75-.54,53.5-.92,80.25-.2,13.89-4.11,18-17.84,19.28-10,1-19.95.57-29.9,0-10.11-.54-16.59-7-18.14-17.32-.22-1.47-.46-2.94-.68-4.4,1.61-2.7,4.26-2.62,6.94-2.75,5.53-.29,11.2.86,16.53-1.55,4.75,1,9.6.36,14.37.8s6.06-1.61,6.07-5.94c0-15.27.3-30.54.42-45.81.12-14.59.17-29.19.25-43.78,1.2-2.91,6.22-4.62,10.79-2.86a15.47,15.47,0,0,0,6.67,1c4.23-.28,4.81,1.58,4.78,5.28C146.28,728.84,145.55,734.84,147,740.73Z"/><path class="cls-2" d="M124.07,719.53c-.08,14.59-.13,29.19-.25,43.78-.12,15.27-.39,30.54-.42,45.81,0,4.34-1.36,6.38-6.07,5.94s-9.62.24-14.37-.8c0-24.43.09-48.87,0-73.3a8.23,8.23,0,0,1,3.25-7.22c5-4.08,9.72-8.57,14.57-12.86C121.69,720.06,122.4,718.58,124.07,719.53Z"/><path class="cls-2" d="M286.39,719.3q.26,42.61.51,85.23c0,10.09,0,10.18-9.92,10.26-3.42,0-7,1.05-10.28-.66-.13-24.42-.22-48.84-.45-73.26,0-2.92.72-5,3-6.84C275.16,729.33,279.83,723.21,286.39,719.3Z"/><path class="cls-2" d="M1044,764c-.08-5.79,0-11.6-.29-17.38-.19-3.45,1.27-4.09,4.34-4.06,15.91.19,31.82.2,47.72.27-6.05,7.63-13.86,13.48-20.68,20.33-1.1,1.1-2.45.86-3.74.86Q1057.65,764,1044,764Z"/><path class="cls-2" d="M219.06,746.21c-5.66,2.92-8.55,7.77-9.19,13.9-.33,3.21-1.69,4.11-4.77,4-5-.24-10-.18-15,0-2.63.09-3.47-.87-3.38-3.44.16-4.81.16-9.64,0-14.46-.1-2.87,1-3.73,3.8-3.64,8.13.25,16.27.28,24.41.39C216.57,743.74,219.86,742.45,219.06,746.21Z"/><path class="cls-3" d="M601.34,766c1.18,4.09.45,8.27.43,12.4-.08,16.59.6,33.2-.39,49.79Q601.36,797,601.34,766Z"/><path class="cls-3" d="M716.46,783.21c.16-5.73-.7-11.5.49-17.2C716.77,771.74,717.52,777.5,716.46,783.21Z"/><path class="cls-3" d="M641.27,811.95c1.32,4.62.19,9.32.42,14Q641.47,818.92,641.27,811.95Z"/><path class="cls-2" d="M680.9,765.23a72.39,72.39,0,0,0,7.45,0c3.55-.36,4.83.67,4.94,4.55.13,4.56-1.11,6.23-5.77,5.78-4.93-.48-9.93-.34-14.9-.45-4.58-.1-3.84-3.53-4.14-6.43-.39-3.72,2.09-3.42,4.46-3.4C675.59,765.24,678.25,765.23,680.9,765.23Z"/><path class="cls-2" d="M468.12,814.82c-3.81,0-7.63-.17-11.42,0-4.19.24-3.24-2.61-3.37-5-.14-2.56,0-4.48,3.51-4.33,6.94.3,13.9.37,20.86.33,4.34,0,4.57,2.61,4.65,5.9.09,4-2.68,3-4.79,3-3.14.1-6.29,0-9.44,0Z"/><path class="cls-3" d="M163.91,774.17c-.37,12.85.48,25.72-.48,38.57q-.12-17.65-.23-35.31C163.19,776.31,162.87,775.08,163.91,774.17Z"/><path class="cls-3" d="M163.46,735.05q.26,12.06.52,24.12c-1.5-7.78-.6-15.61-.55-23.43,0-.16.05-.32.07-.49A.76.76,0,0,0,163.46,735.05Z"/><path class="cls-2" d="M186.81,802c.5-3.35-1.87-8.61.88-11.25s7.9-.87,12-1c10.53-.22,9.31-1.1,9.67,9.05.14,4-.12,8,.1,11.93.17,3-1,4.23-4,4.25-1.82,0-3.63.35-5.45.44C186.81,816.16,186.81,816.15,186.81,802Z"/><path class="cls-2" d="M601.68,702.06q-91.48,0-183,.11c-4.39,0-5.62-1-5.45-5.45.37-9.48.32-19,0-28.49-.13-4.18.64-5.75,5.33-5.58,11.65.41,23.32.05,35,.19,2.86,0,3.94-.63,4.21-3.76,2.45-28.2,5.14-56.38,7.71-84.58q5.81-63.68,11.56-127.37c3.58-39.64,7.07-79.28,10.7-118.92q5.67-61.94,11.57-123.85c4.44-45.79,7.62-91.63,7.08-137.67-.05-4.44,1-5.88,5.66-5.75,12.49.37,25,0,37.48.21,3.63.07,4.41-1.08,4.33-4.47-.22-9.49,0-19-.15-28.49-.07-3.21.74-4.31,4.13-4.29q43.49.18,87,0c3.21,0,4.31.84,4.23,4.17-.21,9.49.13,19-.17,28.49-.12,3.86,1.11,4.67,4.76,4.61,13-.22,26,.13,39-.2,4.37-.11,5.07,1.3,5.06,5.29,0,22-.85,44,.81,66,2,26.07,4.29,52.11,6.6,78.15q4.6,51.75,9.41,103.49,5.37,58.7,10.76,117.4c3.83,42.46,7.53,84.93,11.35,127.4,3,33.17,6.07,66.33,9,99.51.3,3.42,1.29,4.83,5.09,4.74,12-.28,24,0,36-.18,3,0,4,.67,4,3.83-.19,10.33-.23,20.66,0,31,.09,3.65-.75,4.7-4.61,4.69q-92.23-.22-184.45-.1ZM555.86,172.11c0-12.09,0-22.58,0-33.08,0-6.52.06-6.51,6.34-6.47,2.67,0,5.33,0,8,0,6.44-.05,6.42-.06,6.42,6.14q0,88.49,0,177a14.93,14.93,0,0,0,1.67,7.14c4,7.69,7.59,15.55,11.55,23.25,3.69,7.17,7.08,14.53,11.69,21.49,2.25-2.28,3.3-4.7,4.51-7,6.52-12.55,13-25.15,19.61-37.64a15.36,15.36,0,0,0,1.87-7.56q-.09-84.74,0-169.48c0-4.29-1.83-9.89.74-12.5s8.24-.27,12.46-.87c5.42-.77,6.46,1.49,6.34,6.49-.26,10.59-.62,21.23.58,32.13a9.66,9.66,0,0,0,2.23-.75c9.48-6.77,18.9-13.62,28.43-20.33,1.87-1.32,1.81-3,1.81-4.82,0-19.33-.06-38.66.05-58,0-3.34-.84-4.54-4.44-4.47-13,.23-26,0-39,.16-3.28,0-4.24-.86-4.19-4.16.19-11.33-.06-22.67.14-34,.06-3.27-.83-4.2-4.15-4.17q-26.49.25-53,0c-3.43,0-4.08,1.14-4,4.27.18,11-.16,22,.17,33,.13,4.32-1.32,5.15-5.31,5.12-12.83-.11-25.66.35-38.49.29-3.48,0-4.51.91-4.47,4.45.2,15.5.87,31-.17,46.48-.72,10.73,2.42,17.72,11.78,23C542,161.09,548.13,166.49,555.86,172.11Zm56.86,316.25c0,33,.06,66-.08,99,0,3.55,1,5.69,4,7.69,30.28,20,60.45,40.17,90.68,60.24,1.43,1,2.91,3.19,4.62,2.11,1.45-.91.76-3.38.77-5.12q.27-61,.46-122a5.08,5.08,0,0,0-2.89-5.13c-18.73-10.81-37.32-21.85-56.06-32.63-3.19-1.83-4.14-4-4.12-7.55.15-27.66.1-55.32.06-83,0-2.09.49-4.3-1.31-6.13-8.53-8.66-17-17.39-25.49-26.06-.71-.73-1.91-2.37-2.64-.56-2.71,6.69-8,12.29-8,20.14C612.76,422.37,612.72,455.36,612.72,488.35ZM589.85,488c0-31.82-.21-63.65.16-95.46a36,36,0,0,0-5.53-19.7c-1.94-3.24-3.16-4-6.07-.91-6.94,7.41-14.11,14.62-21.39,21.7a9.9,9.9,0,0,0-3.25,7.86c.12,27.82,0,55.65.18,83.47,0,3.92-1.26,5.89-4.54,7.77-18.47,10.58-36.81,21.4-55.22,32.1-1.94,1.12-3.39,2.1-3.37,4.85.26,41.48-.34,83,.7,124.45,0,1.11,0,2.72.63,3.2,1.31,1,2.39-.58,3.42-1.27q45.49-30.3,91-60.61c2.53-1.68,3.37-3.48,3.36-6.48C589.82,555.3,589.86,521.65,589.85,488ZM487.47,506.28a8.32,8.32,0,0,0,1.95-.27c16.45-10.41,32.2-21.85,48.11-33a4.41,4.41,0,0,0,2-4.19q-.29-31.47-.47-62.94a5.18,5.18,0,0,0-2.72-4.83c-9.49-6.16-18.83-12.54-28.34-18.66-8.26-5.32-8.25-5.2-9.19,4.88q-3.88,41.5-7.89,83ZM701.15,348.37c-1.59-16.84-3.07-32.72-4.59-48.6-2.28-23.85-4.66-47.68-6.81-71.54-.4-4.44-1.77-4.66-5-2.31Q666,239.54,647.08,253a6,6,0,0,0-2.68,5.42c-.13,14.31-.28,28.63-.7,42.94-.11,3.86,1,6.37,4.2,8.68,13.62,9.82,27,19.93,40.54,29.92C692.27,342.79,695.92,345.91,701.15,348.37Zm15.19,159.28L703.93,377.06a16.08,16.08,0,0,0-2.43,1c-11.62,7.78-23.18,15.64-34.87,23.31-2.12,1.39-2.12,3.08-2.12,5.1,0,20.66.06,41.33,0,62a6,6,0,0,0,3,5.69c6.65,4.42,13.13,9.1,19.71,13.62C696.47,494.13,705.79,500.45,716.34,507.65ZM502.5,349.55c18.82-13.93,36.68-27.2,54.61-40.37,1.82-1.34,1.78-3,1.79-4.83,0-15.48,0-31,.11-46.45a5.64,5.64,0,0,0-2.76-5.3c-11.72-8.19-23.3-16.59-35-24.77-6.83-4.76-6.77-4.63-7.57,3.87-2.21,23.52-4.57,47-6.81,70.55C505.38,317.64,504,333,502.5,349.55Zm15.1,311.77c.45.71.53,1,.63,1,24.12.85,48.24.3,72.36.5,2.44,0,2.7-1.33,2.68-3.16-.11-12.49-.3-25-.29-37.46,0-4.3-1.16-4.77-4.81-2.59-15.84,9.46-31.83,18.68-47.73,28C532.79,652.13,525.21,656.75,517.6,661.32Zm95.19-43.73a11.72,11.72,0,0,0-.67,2.41c-.14,13.32-.17,26.64-.41,40-.06,3.28,2,2.83,3.93,2.82q33.23-.15,66.46-.37c1.67,0,3.59.59,5.33-1.25C663,646,638.22,631.81,612.78,617.58ZM525.65,353.86c16.21.72,32.32,1.62,48.78,0a194.72,194.72,0,0,0-12-24.75c-.94-1.66-1.72-2.11-3.39-.93C547.67,336.23,536.28,344.2,525.65,353.86Zm103.73-.5c9.62,2.24,45,2,49.35-.53-11.18-8.12-22.2-16.08-33.17-24.13-1.82-1.33-2.87-1-3.93.85C637.21,337.16,632.85,344.79,629.38,353.36ZM542.81,201.52v.25c3.65,0,7.3.17,10.93-.08,1.73-.12,4.31,1.46,5.11-1.34a5.73,5.73,0,0,0-2.17-6.23c-4.58-3.54-9.27-6.92-13.86-10.44-1.65-1.27-2.88-1.14-4.14.53-3.6,4.74-7.3,9.41-10.92,14.14-1.62,2.12-1.22,3.23,1.64,3.19C533.86,201.47,538.34,201.52,542.81,201.52Zm118.55.35v-.34c4.33,0,8.65.07,13,0,2.42-.05,3.38-.92,1.71-3.36a132.54,132.54,0,0,0-10.95-13.57c-.84-.93-1.85-2.07-3.41-1.09-5.9,3.75-11.93,7.36-16.46,12.82-2.21,2.67-1.59,4.6,2.17,4.82C652.06,201.38,656.71,201.61,661.35,201.86ZM646.08,371.35c4.4,4.48,8.18,8.39,12,12.21,1.07,1.06,2.43,2,4,1,6.45-4.1,12.86-8.25,19.28-12.38l-.42-.8Zm-122.89.12-.43.86c6.39,4.13,12.81,8.23,19.17,12.41,1.15.76,2,.89,3-.13,4.1-4.26,8.21-8.52,12.66-13.13ZM645,233.39c6.09-2.77,16.64-10.33,20.31-14.87H645.49c-1.18,0-1.85.48-1.76,1.76C644.06,224.64,642.88,229.16,645,233.39ZM539.18,218.47c5,6.05,11.08,9.74,16.86,13.85,1.69,1.21,2.74.76,2.76-1.45q.06-5.21.15-10.43c0-1.42-.57-2-2.07-2C551,218.51,545.08,218.47,539.18,218.47ZM519.4,181.34a21.49,21.49,0,0,0,6.44-7.95c1.48-3-2.26-3.17-3.69-4.55-1.09-1.07-2.14-.54-2.34,1C519.33,173.48,518.47,177.13,519.4,181.34ZM683.23,168c-7.63,4.57-7.27,7.07,1.84,13C684.89,176.43,685,172.21,683.23,168Z"/><path class="cls-1" d="M657,152.92c-1-7.38-.41-14.55-.53-21.69-.13-7.78,0-7.74-7.38-7.72-8.33,0-16.66.1-25-.1-4-.1-5.37,1.1-5.36,5.4.12,59.64,0,119.29.05,178.93,0,5.76-.78,10.92-3.9,16.06-3.79,6.25-6.3,13.24-10.18,19.53-2,3.26-3.81,3.23-5.26.22C593.38,331,585.81,319.5,586,304c.76-55.47.06-111,0-166.43,0-3.58-2-7-.57-10.78.41-1.1-1.07-3.14-3.56-3.13-10,0-20-.11-30-.31-3.07-.06-3.59,1.72-3.59,4.14,0,5.83,0,11.66,0,17.49-.06,7.24-1.22,7.9-7.42,4.94-5.83-2.78-9-6.37-8.58-13.63.74-13.12.34-26.31.25-39.47,0-3.17.66-4.66,4.27-4.63,11.49.11,23-.13,34.47-.17,8.18,0,8.49-.29,8.55-8.28q.11-14,.22-28c0-4.12,1.27-6.08,6.18-5.86,10.64.49,21.32.25,32,0,3.27-.06,4.67,1,4.45,4.2-.72,10.79,1.81,21.44,1.49,32.2-.13,4.32,1.9,5.46,5.74,5.47,12.16,0,24.32.3,36.48.26,4,0,5.9,1.48,5.82,5.47-.29,14,.62,27.94-.44,41.9-.23,3-1.21,5.1-4,6.74C664.33,148.28,661.8,151.82,657,152.92Z"/><path class="cls-1" d="M616.93,482.38q0-45.24,0-90.48,0-1.25,0-2.5c0-2.68.08-6.14,2.56-7,1.62-.53,4,2,5.65,4,2.4,2.84,5.61,5,8.44,7.48a18,18,0,0,1,6.35,13.9q.18,28.24.26,56.48.18,50.49.34,101c0,6.14,7,13.44,13.25,14.14,3.26.37,4.62-.92,4.6-4.12,0-4.33.11-8.66.12-13,0-16.33.12-32.66.06-49,0-3.82.49-5.23,4.89-3.47,5.3,2.11,9.51,5.75,14.2,8.65,6.13,3.79,12.19,7.7,18.44,11.29,3.81,2.19,5.71,5,5.68,9.62-.16,18.83.26,37.67-.19,56.49-.29,12-.44,24-.68,35.95,0,1.39.52,3.22-1.33,3.91-1.65.62-2.73-.73-3.92-1.6-15-10.93-30.68-20.83-45.88-31.45-9.48-6.62-19.32-12.75-28.66-19.65-3.62-2.67-4.5-5.63-4.49-9.69.08-30.33,0-60.66,0-91Z"/><path class="cls-1" d="M585,486c0,30.49-.06,61,.08,91.47a8,8,0,0,1-4.17,7.34c-10.66,6.68-20.44,14.77-31,21.41-14.21,8.95-27.26,19.63-42,27.62-1.56.84-1.38,5-4.67,2.61-2.61-1.88-2.15-4.65-2.15-7.28,0-27.83.52-55.67-.27-83.47-.29-10.26,4.36-15.43,12.25-19.8,8.66-4.8,17.16-9.91,25.64-15,1.6-1,3.13-2.35,4.91-1.5s1,3,1.06,4.54c.11,16.16.31,32.33.09,48.49-.06,4.53,1.51,8.71,1.59,13.17,0,2.63,4.67,3.79,7.73,1.62a61.2,61.2,0,0,1,6.65-4.2c2.59-1.37,2.09-3.89,2.09-6.18q.07-75.48.13-151c0-3,.18-6-.1-9a10.82,10.82,0,0,1,3.5-8.89c4.93-5,10.07-9.77,15.19-14.57.65-.61,1.24-1.81,2.45-1.3,1.38.58,1,2,1,3.05.11,7.45.19,14.9.19,22.36q0,39.24,0,78.48Z"/></svg>